<svg width="150" height="40" viewBox="0 0 150 40" xmlns="http://www.w3.org/2000/svg"><title>logo</title><g fill="#4F545C" fill-rule="evenodd"><path d="M2.2222 34.352v3.796h3.7963v-1.296l1.389.3702v.7408c0 1.2037-.3705 1.389-1.389 1.389H2.3148c-1.2037 0-1.574-.278-1.574-1.389v-3.2408c0-1.2037.3703-1.389 1.574-1.389h3.7037c1.111 0 1.389.278 1.389 1.389v.5556l-1.389.2778V34.352H2.2222zM28.426 33.3333h1.2962l3.5185 6.0186H31.574l-.7407-1.2964H27.037l-.7407 1.2963H25l3.426-6.0187zm1.9444 3.611l-1.2963-2.5-1.2962 2.5h2.5926zM49.2593 33.3333h5.185c.926 0 1.2964.3704 1.2964 1.2037v1.2963c0 .8334-.3703 1.2037-1.2963 1.2037h-3.8888v2.4074h-1.2963v-6.111zm1.2963 1.0186v1.574h3.2407c.463 0 .7407 0 .7407-.463v-.5556c0-.463-.2777-.463-.7407-.463h-3.2407v-.0925zM74.074 33.3333h1.389v6.0186h-1.389M98.3333 39.352H97.037v-5h-2.8703v-1.0187h6.9444v1.111h-2.8703v4.9076M120.8333 33.3333h1.389l3.4258 6.0186h-1.574l-.7407-1.2964h-3.889l-.7406 1.2963h-1.389l3.5186-6.0187zm2.037 3.611l-1.2962-2.5-1.3888 2.5h2.6852zM143.3333 33.3333h1.389v4.8148h4.6296v1.204h-6.0187M6.0185.3704c3.7963 0 5.8334.926 5.8334 3.7037 0 2.1297-1.5742 3.7038-3.5187 4.2593 2.5926.0926 4.7223 1.7593 4.7223 4.352 0 3.4258-2.5926 4.8147-6.2963 4.8147H0v-.5556c2.1296-.2777 2.037-.0925 2.037-2.5V3.426c0-2.315.0926-2.1297-2.037-2.5V.3703h6.0185zM4.537 8.148h1.7593c1.389 0 3.0556-.8332 3.0556-3.7036 0-2.5-1.204-3.426-3.5187-3.426H4.537v7.1297zm0 5.8335c0 2.1296.3704 2.8704 2.5 2.8704 2.1297 0 3.2408-1.389 3.2408-3.7964 0-3.0556-1.852-4.074-4.1667-4.074H4.537v5zM13.148 16.9444c2.2224-.2777 2.1298-.0925 2.1298-2.5V3.426c0-2.4075.0926-2.1297-2.1297-2.5V.3703h11.0187v3.889h-.5556c-.2777-1.7594-.8332-3.241-2.5925-3.241h-3.3333v7.1297h2.1296c1.574 0 2.1296-.5554 2.2222-2.1295h.5556v5.1852h-.5556c-.0926-1.389-.5555-2.2222-2.2222-2.2222h-2.1296v5.463c0 2.1296.926 2.4074 3.2407 2.4074 3.5184 0 3.426-1.1113 4.537-3.704h.7407l-.8333 4.352H13.148v-.5556zM41.9444 17.5C38.0556 12.8704 33.9814 8.0556 30 3.2407v10.926c0 .5555.0926.926.0926 1.2963.2778.926 1.111 1.2963 2.5926 1.389v.5554h-6.0185v-.5555c1.2037-.0927 2.037-.463 2.1296-1.389.0926-.3704.2778-.7408.2778-1.2963V2.5927C28.3334 1.7592 27.5.9258 26.111.9258V.3703h4.4446c3.7037 4.3518 7.5 8.9815 11.111 13.426h.0927V3.7036c0-.463-.0926-.926-.2778-1.2963-.0926-.926-.926-1.2963-2.5-1.389v-.648H45V.926c-1.2037.0925-2.037.463-2.1296 1.3888-.0926.3704-.2778.8333-.2778 1.2963V17.5h-.6482zM60.463 13.148l-.7408 3.0557c0 .5556-.463.7407-1.2037.8333-.926.3704-2.5926.8334-4.7222.8334-5.0926 0-9.6296-2.5-9.6296-8.9815 0-3.7964 3.2407-8.889 9.8148-8.889 2.4074 0 3.426.463 4.7222.8333.5556.2778.926.5556.926 1.111V5h-.7408c0-1.852-1.2964-4.074-5.1853-4.074-4.6296 0-6.7593 3.3333-6.8518 7.685 0 4.815 2.222 8.3334 7.222 8.3334 3.3334 0 4.815-1.7592 5.6482-3.7963h.7408z"/><path d="M64.7222 14.4444c0 2.4075-.0926 2.2223 2.1297 2.5V17.5H60.185v-.5556c2.2222-.2777 2.1296-.0925 2.1296-2.5V3.426c0-2.4075.0926-2.1297-2.1296-2.5V.3703h6.6667V.926c-2.2224.3703-2.1298.0925-2.1298 2.5V7.685h8.611V3.426c0-2.4075.0927-2.1297-2.1295-2.5V.3703h6.6667V.926c-2.2223.3703-2.1297.0925-2.1297 2.5v11.0184c0 2.4075-.0926 2.2223 2.1297 2.5V17.5h-6.6667v-.5556c2.2222-.2777 2.1296-.0925 2.1296-2.5V8.611h-8.611v5.8334zM83.148 4.2593v9.9074c0 .5555.0927.926.0927 1.2963.0926.926.926 1.2963 2.1297 1.389v.5554h-5.5556v-.5555c1.2037-.0927 2.037-.463 2.1296-1.389 0-.3704.0926-.7408.0926-1.2963V3.0557C81.6667 1.8518 80.463.9258 79.2593.9258V.3703h4.6296l6.8517 13.7037L97.8704.3705h4.074V.926c-1.8518 0-2.5 1.111-2.5 2.5925v10.926c0 2.4074-.0925 2.2222 2.1297 2.5V17.5h-6.6666v-.5556c2.2222-.2777 2.1296-.0925 2.1296-2.5V4.1667h-.0926l-6.6666 13.5185h-.3704L83.148 4.2592zM106.2963 11.852l-1.2037 3.3332c-.2778.926.2778 1.7592 1.2963 1.7592V17.5h-4.537v-.5556c.7406 0 1.3887-.463 1.759-1.2963C104.7223 13.5186 107.5 5.463 109.537 0h1.389c1.6666 5 4.1666 12.5926 5 14.8148.5555 1.2963.926 2.1296 2.037 2.1296V17.5h-5.6482v-.5556c1.574 0 1.6667-.8333 1.2963-1.8518L112.5 11.852h-6.2037zm5.926-.926l-2.5927-7.963-2.963 7.963h5.5556zM118.3333.3704h7.2223c2.5 0 5 1.2963 5 4.1666 0 2.5926-1.574 4.2593-3.426 5.0926l2.4074 3.5185c1.2037 1.852 2.5926 3.5187 3.426 4.1668v.2778h-2.5c-1.389 0-2.2223-2.5926-5.1852-7.5926h-2.4074v4.537c0 2.4074-.0926 2.2223 2.1296 2.5v.5556h-6.6667v-.5556c2.2223-.2777 2.1297-.0926 2.1297-2.5V3.426c0-2.4075.0926-2.1297-2.1297-2.5V.3703zm4.537 8.7963h2.037c2.2223 0 3.2408-1.6667 3.2408-4.352 0-2.685-1.574-3.7036-3.3332-3.7036h-1.8518v8.0557h-.0926zM136.389 3.426c0-2.4075.0925-2.1297-2.1297-2.5V.3703h6.6666V.926c-2.2223.3703-2.1297.0925-2.1297 2.5v4.9073c.8333-.0926 1.2963-.3703 1.8518-.926l5-5.0925c1.1113-1.111-.4628-1.2963-1.296-1.2963v-.648h4.537v.5554c-.741.3703-1.5742 1.2962-2.5927 2.222l-5.1852 5.1853c2.5927 2.6852 6.2964 7.5 8.5186 8.889v.3703h-2.5c-.926 0-1.574-.8333-2.5926-2.1296l-5.185-6.4815h-.5557v5.5555c0 2.4074-.0926 2.2223 2.1296 2.5v.5556h-6.6667v-.5556c2.2222-.2777 2.1296-.0926 2.1296-2.5V3.426zM43.0556 23.9815h64.352v1h-64.352z"/><path d="M77.5926 28.3333l-2.963-3.7963-2.963 3.7963"/></g></svg>