<svg width="150" height="20" viewBox="0 0 150 20" xmlns="http://www.w3.org/2000/svg"><title>Page 1</title><g fill="#4F545C" fill-rule="evenodd"><path d="M83.4728 9.638c-.0386-.301-.0477-.6088-.1238-.901-.184-.701-.5193-1.3222-1.0807-1.819-.784-.6954-1.6955-.9843-2.7273-.7554-.8068.1777-1.4602.63-1.9454 1.2944-.3682.5022-.6057 1.05-.6944 1.6722-.066.4634-.0488.9122.0535 1.359.167.7188.5125 1.3444 1.0704 1.8566.757.6955 1.6228 1.021 2.6706.849.8397-.138 1.4818-.5824 1.9806-1.2212.5307-.68.808-1.4612.7966-2.3345m-6.6193 3.5957v5.9444H75.15c-.0078-.0066-.0158-.0132-.0226-.022-.0057-.0068-.0136-.0168-.0136-.0257-.0046-4.7166-.008-9.4344-.0103-14.1522 0-.05.0068-.0988.0114-.1454.243-.0578 1.3408-.0634 1.6726-.0078v1.3344c.201-.1644.333-.3155.4773-.451.4862-.459 1.0465-.7956 1.693-.998.4523-.14.9137-.17 1.3842-.171.7227-.0022 1.401.1678 2.041.4778 1.2896.6256 2.117 1.641 2.559 2.971.2352.7057.3147 1.4357.2443 2.1668-.0955.9844-.4102 1.91-1.025 2.71-.775 1.0066-1.7898 1.6533-3.0762 1.86-.2943.0478-.5966.121-.8897.1033-.4932-.03-.991-.0777-1.459-.2643-.5558-.221-1.05-.5345-1.4967-.921-.1228-.1057-.225-.2357-.3865-.409M5.839 13.8764c.1794-.02.4283-.0366.6726-.0777.499-.0834.9693-.2567 1.3852-.5334 1.1102-.741 1.6387-1.8133 1.749-3.0944.0578-.6857-.04-1.359-.2944-2.008-.4648-1.18-1.2966-1.972-2.5523-2.312-.475-.129-.9658-.1912-1.4533-.1234-.9125.1255-1.6955.5066-2.3455 1.1666-.6795.69-1.067 1.5078-1.1682 2.44-.1136 1.0322.108 2.0067.7353 2.8678.7818 1.0733 1.8443 1.641 3.2716 1.6744M9.65 6.3587V4.803c.399-.022.7784-.011 1.1887-.0066v.2934c0 2.9722.01 5.9444-.0058 8.9166-.0046.8467-.142 1.6834-.5137 2.4612-.408.8522-1.018 1.531-1.8443 2.0255-.5704.34-1.192.5423-1.8432.6234-1.1977.15-2.366.0312-3.45-.5388-.7943-.4167-1.3965-1.0212-1.8113-1.8045-.0193-.0354-.034-.0743-.0466-.1132-.0056-.0178.0012-.039.0035-.0734.208-.0688.4273-.0244.642-.0322.207-.0078.416-.001.616-.001.15.1655.2818.322.4272.4677.5534.552 1.2455.8254 2.0137.9532.343.0578.6852.0734 1.0272.0522.817-.051 1.582-.2722 2.225-.7822.599-.4755.9796-1.101 1.1875-1.8278.2058-.7166.2058-1.4466.1785-2.2177-.0647.0577-.1193.0933-.158.141-.4988.6134-1.1306 1.0456-1.8692 1.338-.6955.2732-1.4205.3943-2.1682.3465-.7783-.049-1.5124-.26-2.1897-.6478-.8863-.5088-1.5636-1.2155-2.0227-2.11-.3057-.5933-.5182-1.2188-.5534-1.8922-.0114-.2333-.059-.4666-.0466-.6978.066-1.1522.3932-2.2166 1.1227-3.1455.8023-1.0223 1.8466-1.668 3.1352-1.9034.4455-.0812.9012-.0967 1.366-.0412.6727.08 1.3045.25 1.892.5734.475.261.909.5733 1.2477.999.0637.08.1262.161.1875.241.0216-.0134.042-.0267.0625-.041M121.622 8.5428c.0295.021.0454.039.0636.0422.041.0067.083.01.125.009 2.0045-.0023 4.009-.0046 6.0136-.008.008 0 .017-.01.025-.0177.0068-.0055.0125-.0133.0296-.0333-.3228-1.0067-.9535-1.76-1.9432-2.2156-.5148-.2355-1.067-.321-1.6148-.221-.9864.1766-1.767.6944-2.2977 1.5355-.1772.281-.3465.5766-.401.9088m8.1988 1.5878h-8.2852c-.0603.1188-.049.2266-.0205.3355.1194.4546.2638.898.5353 1.2923.5182.749 1.216 1.2445 2.1262 1.43.5682.1145 1.1352.1034 1.6943-.06.4148-.12.7932-.2955 1.1045-.6.2898-.2822.5716-.5655.733-.9422.016-.0354.049-.0643.0773-.102h1.8318c-.133.4354-.317.8288-.5523 1.2-.6897 1.0888-1.7033 1.7277-2.9624 2.0143-.2307.0523-.4727.0578-.709.0856-.1228.0143-.2455.03-.3683.0432-.0522.0067-.1045.0145-.1568.0122-1.042-.06-2.033-.29-2.908-.8755-.626-.42-1.1295-.9512-1.5192-1.5923-.2955-.4867-.4785-1.0123-.624-1.5534-.1067-.3977-.076-.8077-.084-1.2144-.025-1.2446.399-2.3457 1.1954-3.289.7694-.9122 1.757-1.5144 2.9728-1.711 1.3488-.219 2.592.041 3.6988.822.874.6168 1.4887 1.4412 1.849 2.438.1658.4588.2885.9266.335 1.4177.025.2733.0467.54.0365.849M93.659 9.46c-.074.0323-.1228.0468-.1637.0734-.334.2178-.7125.3234-1.0977.4045-.7.1466-1.4148.171-2.1238.242-.459.0457-.9023.138-1.317.3257-.183.0833-.3512.2155-.4967.3555-.26.2478-.3237.5667-.3283.92-.0068.4678.2034.799.583 1.0434.5613.3633 1.2045.4333 1.8488.4055.366-.0154.7398-.052 1.1023-.1588.4625-.1366.9045-.309 1.267-.6244.4557-.3945.7023-.9034.7228-1.5.017-.4867.0034-.9745.0034-1.4867m-4.9625-1.622h-1.7193c-.075-.2468.0102-.4768.068-.6923.248-.9334.8183-1.6267 1.7024-2.0723.4852-.2444.999-.3844 1.5352-.4744.583-.0967 1.1694-.0833 1.7455-.04.7568.0556 1.4943.2322 2.142.6644.6557.439 1.0148 1.0556 1.1728 1.8.0103.05.008.1023.008.1534.0023 2.42.0034 4.84.0034 7.26 0 .04-.008.08-.0125.1155-.2296.0567-1.232.0678-1.6217.0134v-.9745c-.0965.0645-.1522.089-.191.129-.485.4955-1.0976.7632-1.76.931-.3308.0834-.667.1545-1.015.1367-.0806-.0034-.1635.021-.2453.03-.0716.0088-.1478.0332-.2148.0188-.426-.09-.8648-.0567-1.2943-.16-.491-.119-.9558-.2822-1.3694-.559-.5773-.3832-.974-.8977-1.1444-1.5777-.166-.6543-.1284-1.292.099-1.9166.2442-.6688.7488-1.1144 1.392-1.4144.508-.2378 1.0477-.371 1.609-.441.484-.06.9694-.088 1.4557-.1234.6488-.0478 1.3045-.1023 1.9113-.3645.15-.0654.2966-.1477.425-.2477.3875-.2977.3682-.9622.051-1.2922-.267-.2777-.5987-.4488-.967-.5243-.425-.0878-.858-.159-1.2965-.1334-.4568.0256-.9068.1-1.3318.2767-.592.2467-.934.6922-1.0637 1.3022-.009.039-.017.079-.0272.1178-.0022.009-.0113.0156-.0465.059M137.094 11.421h1.7385c.0295.0743.0682.1554.0932.24.2148.69.7193 1.0943 1.3773 1.3532.492.1922 1.0045.2645 1.5272.231.6068-.04 1.1864-.181 1.6864-.552.3898-.289.726-.9312.417-1.489-.093-.1678-.2147-.2933-.3852-.3866-.433-.2367-.9057-.3534-1.384-.4456-.791-.1522-1.5978-.2156-2.3774-.4322-.5-.139-.991-.301-1.418-.6067-.5638-.4032-.866-.94-.8933-1.6288-.0227-.541.0398-1.0555.3307-1.5278.3863-.6244.9397-1.0544 1.6295-1.3166.5647-.2156 1.15-.3222 1.7624-.3222.616 0 1.226.0188 1.8205.1944 1.043.3078 1.8215.9222 2.259 1.909.1102.2477.1545.5232.2204.7888.017.0655.0023.1378.0023.2244h-1.7193c-.0182-.049-.042-.1022-.0603-.159-.193-.641-.643-1.0232-1.2726-1.2388-.5852-.201-1.1727-.2155-1.7773-.091-.4817.0988-.892.3-1.235.6544-.3694.379-.291 1.0566.2135 1.2844.4035.181.8182.2867 1.2466.3645.7013.1255 1.408.2266 2.1035.3744.6194.1323 1.2205.3168 1.7523.6868.4375.3055.7182.7078.8614 1.1978.0773.271.1398.56.1273.8377-.0273.6545-.1705 1.2767-.5898 1.8245-.5284.6922-1.2602 1.0466-2.075 1.2655-.5818.1556-1.183.2256-1.7887.1823-.909-.0645-1.7852-.2567-2.5568-.77-.8272-.55-1.3522-1.3023-1.5625-2.2612-.025-.1166-.0454-.2333-.0738-.3855M19.2577 8.8774c.159.0045.2818.0123.4034.0123 2.1183.001 4.2365.001 6.3558.001.2193 0 .4375.0034.6568-.0033.0648-.001.1307-.03.1944-.0455-.0194-.1034-.032-.1846-.05-.2623-.0148-.059-.0364-.1167-.059-.1734-.4183-1.0877-1.1365-1.9077-2.2342-2.3877-.7353-.3212-1.4955-.3878-2.283-.2134-.8454.1867-1.5295.6267-2.0863 1.26-.4478.509-.7455 1.0956-.8978 1.8122m8.8762 1.1245H19.17c-.0954.1943.0012.3743.0296.542.1057.6068.3238 1.178.7068 1.6768.659.8566 1.499 1.4244 2.6045 1.5878.8888.1322 1.741.0455 2.557-.3334.6147-.2855 1.0625-.7444 1.3852-1.321.1398-.249.2557-.51.3954-.7923.3773-.008.767-.0134 1.1796.0043-.1125.4745-.291.8834-.508 1.2778-.4863.8823-1.1897 1.5412-2.1284 1.9468-.4966.2144-1.017.3566-1.5648.381-.2272.0112-.4556.0523-.683.0468-1.1556-.0267-2.209-.3578-3.1317-1.049-1.0364-.7777-1.6932-1.8066-1.9353-3.0466-.2875-1.4744-.0488-2.881.8205-4.149.6477-.9443 1.524-1.6132 2.6284-1.9754.5533-.1823 1.1306-.2778 1.718-.2445 1.0558.059 2.024.38 2.849 1.0334.9943.7856 1.6443 1.7945 1.934 3.02.1057.449.1512.899.107 1.3945M118.2345 14.5817h-1.6977v-.3456c0-1.8577.0068-3.7177-.0045-5.5766-.0023-.4666-.0807-.9266-.3012-1.3544-.3135-.6133-.8135-.9922-1.4885-1.1522-.7625-.1822-1.4636-.0267-2.108.3933-.517.339-.8238.8257-.9772 1.4057-.049.1833-.066.38-.066.571-.0056 1.9-.0033 3.8-.0033 5.7v.3267c-.2444.0612-1.3864.07-1.7375.0156V4.8372c.208-.061 1.2443-.0755 1.6625-.02v.8978c.1-.081.1613-.1233.2125-.1756.5193-.52 1.15-.8222 1.883-.9377.86-.1356 1.7033-.09 2.501.2666.507.2256.9353.561 1.274 1.0056.4124.542.6476 1.1543.775 1.8088.0533.2766.0715.5644.0726.8478.0058 1.91.0035 3.82.0035 5.73v.321zM68.7184 8.5406c1.4284 2.0744 2.841 4.1266 4.275 6.21-.251.0644-.4773.0255-.6977.0333-.2182.0066-.4375.002-.6932.002-.616-.892-1.2398-1.792-1.8614-2.6943-.6158-.8945-1.2294-1.791-1.859-2.71-.1715.1433-.333.2655-.4784.4033-.4136.39-.818.789-1.2295 1.18-.1715.1633-.3533.3144-.5454.4844v3.3145c-.3943.041-.767.0132-1.1216.021-.0227-.0244-.0306-.031-.0375-.04-.0056-.0067-.0136-.0167-.0136-.0244-.0046-4.6467-.007-9.2923-.0103-13.9378 0-.06.0057-.12.0102-.2.1897-.041.3772-.0156.56-.02.1876-.0045.375-.001.5513-.001.0193.02.0272.0276.034.0354.007.0067.016.0145.0182.0234.0046.03.0103.06.0103.091.0022 3.0123.0034 6.0245.0057 9.0367 0 .009.008.019.0238.05.0466-.031.0943-.0566.1318-.0922.6683-.631 1.3354-1.2632 2.0024-1.8943.608-.5745 1.2136-1.149 1.824-1.721.459-.43.9237-.8546 1.3942-1.289h1.676c-1.342 1.2644-2.6465 2.4922-3.9692 3.739M50.6648 9.7032c-.0387-.2555-.0546-.6378-.158-.9955-.359-1.2478-1.0954-2.2056-2.334-2.7434-.7035-.3055-1.4342-.3955-2.192-.2344-.9592.202-1.7285.7132-2.308 1.4643-.7614.9867-1.0512 2.1167-.8376 3.3378.1728.9912.6478 1.8357 1.4557 2.4857.8533.6855 1.8113 1.0022 2.9204.851.767-.1044 1.4375-.4133 2.008-.91.9556-.831 1.393-1.8988 1.4454-3.2555m-9.066.1034c.0205-1.2467.4103-2.3634 1.1876-3.3445.7136-.8988 1.642-1.5077 2.7716-1.77 1.5125-.35 2.9125-.0532 4.1534.87 1.0988.8168 1.7625 1.909 2.008 3.2357.0658.3577.1226.7255.1113 1.0877-.0398 1.3956-.5227 2.619-1.533 3.63-.6727.6745-1.4716 1.1267-2.4022 1.3556-.434.1067-.8785.1722-1.3262.1478-1.0648-.059-2.0363-.38-2.8886-1.021-.9887-.7435-1.5875-1.7324-1.917-2.8935-.0387-.1355-.058-.2777-.074-.419-.0352-.292-.0613-.5854-.0908-.8787M29.9067 4.8058c.5205 1.35 1.0398 2.689 1.5534 4.03.5137 1.34 1.0228 2.681 1.5615 4.0944 1.067-2.7533 2.109-5.439 3.151-8.1255h1.2353c-.0738.1944-.1386.3722-.2068.549-.4977 1.3043-.9966 2.61-1.4932 3.9143-.3693.9722-.7352 1.9444-1.1045 2.9156-.4455 1.1722-.8966 2.3422-1.3375 3.5155-.1477.3923-.3182.7723-.5443 1.129-.4818.7578-1.1682 1.2378-2.0534 1.429-.4477.0977-.9045.1054-1.3738-.0134V17.179c.2227 0 .4284-.0032.6352 0 .8898.018 1.492-.4166 1.9103-1.1488.2295-.4033.3522-.8466.5068-1.2778.0204-.0577.0375-.1155.066-.2022-1.2456-3.2278-2.499-6.4766-3.7592-9.7444h1.2534zM61.5923 11.3563c.4022.0023.7738-.009 1.1704.0078-.0193.1023-.026.1723-.0466.2368-.2237.6878-.5658 1.3066-1.0635 1.8466-.7307.7912-1.624 1.289-2.7 1.4623-.3568.0577-.7216.1177-1.0807.1044-1.2023-.042-2.2727-.43-3.1852-1.2166-.8648-.7444-1.4148-1.67-1.6807-2.7577-.1137-.4656-.1774-.9423-.149-1.421.074-1.2324.474-2.3524 1.2955-3.3013.7875-.9088 1.7886-1.5022 2.9932-1.6955 1.4193-.2268 2.7375.072 3.8852.9343.4965.3734.9215.8278 1.2204 1.38.2034.3767.408.7534.5022 1.1756-.208.07-.8272.0843-1.2034.031-.1193-.2256-.2238-.46-.3602-.6744-.559-.8834-1.3545-1.459-2.4-1.669-1.2693-.2566-2.3875.0534-3.3545.8967-.799.6967-1.2432 1.58-1.3785 2.6-.092.7023-.0125 1.4023.274 2.0667.2295.531.526 1.02.96 1.4167.7592.6922 1.641 1.0877 2.7 1.0877.74 0 1.424-.181 2.048-.5544.6908-.4122 1.1567-1.0156 1.459-1.7456.026-.0644.0568-.1277.0943-.211M103.944 2.416h1.7386V4.469c.3966.0322.7693.011 1.141.0145.3636.0044.726.001 1.1204.001.016.2856.0057.548.008.81.001.2656 0 .53 0 .8267-.3864.0312-.7592.01-1.1296.0145-.3637.0032-.7273 0-1.1068 0-.0103.0932-.0228.162-.0228.23 0 1.6332-.0045 3.2677.007 4.901.002.4122.1294.8067.385 1.139.1705.22.408.3777.6785.47.2466.082.4966.1466.7625.1332.133-.0066.266-.001.4136-.001v1.5777c-.3795.03-.7557.0454-1.1238.0032-.4966-.0578-.9705-.209-1.3932-.489-.6705-.442-1.0852-1.0565-1.292-1.811-.1364-.4922-.1864-.9955-.1864-1.5055V2.416zM131.5474 4.797h1.6363c.0762.2912.0012.588.0535.919.8727-.9333 1.9454-1.2778 3.1875-1.1578.0647.2067.0818 1.141.026 1.6234-.0635.0055-.133.0188-.201.02-.4807.01-.9546.0766-1.399.2555-.6556.2623-1.134.709-1.3715 1.3757-.1375.3866-.2034.7833-.2023 1.1955.0056 1.7356.0022 3.471.0022 5.2067v.3466h-1.7c-.0125-.0112-.0204-.0167-.0273-.0245-.0058-.0077-.0148-.0166-.0148-.0254-.0035-3.1956-.007-6.3912-.009-9.5867 0-.039.01-.078.0192-.148M99.1094 14.5844H97.398c-.0533-.2566-.058-9.4722-.0056-9.78h1.6227c.0592.15.024.3045.0297.4534.0068.14.0022.28.0022.4866.876-.9666 1.9283-1.3088 3.1533-1.1844.0625.21.0762 1.2278.0205 1.63-.0955.0044-.1977.0044-.2977.0133-.508.0423-1.0045.1156-1.468.349-.6706.34-1.0944.8666-1.2706 1.5766-.058.2332-.0716.482-.0727.7243-.0045 1.7867-.0023 3.5734-.0023 5.361v.37zM13.1236 4.8047h1.1012V5.857c.509-.489 1.0318-.839 1.6454-1.0434.6125-.2045 1.241-.299 1.916-.2467.034.37.0227.71.008 1.0854-.1376 0-.2592-.0033-.382 0-.5454.019-1.0772.1145-1.559.3734-.791.4255-1.2887 1.0855-1.4898 1.9422-.0977.4156-.1273.8422-.126 1.271.002 1.7246 0 3.449 0 5.1734v.3612c-.382.0233-.741.0066-1.0944.011-.058-.2433-.074-9.5677-.0194-9.98M38.879.562h.9362c.0512 0 .1012.0078.166.0133v14.1734c-.1694.079-.3592.0255-.541.0344-.176.01-.3534.0023-.5102.0023-.026-.0266-.034-.0333-.041-.041-.0056-.008-.0135-.0167-.0135-.0245-.0046-4.6578-.007-9.3145-.0103-13.971 0-.049.0068-.099.0137-.1868M149.5816 13.2178c.041.711-.5932 1.27-1.2977 1.271-.6626.0012-1.2865-.601-1.2888-1.2644-.001-.6633.617-1.3 1.3137-1.2688.7385.0322 1.2726.5333 1.2726 1.2622"/></g></svg>