<svg xmlns="http://www.w3.org/2000/svg" width="110.75" height="40" viewBox="0 0 110.75 40"><path d="M110,20.54H105.1a.39.39,0,0,1-.32-.17c-2-2.7-3.92-5.39-5.88-8.08a1.5,1.5,0,0,0-.16-.2c-.38.36-.77.7-1.15,1.07s-.72.74-1.07,1.12a.57.57,0,0,0-.13.33c0,1.88,0,3.77,0,5.65v.26H92V.52h4.39V9.24c.35-.37.66-.69.95-1l7-7.55a.46.46,0,0,1,.39-.17c1.61,0,3.22,0,4.83,0h.28L101.68,9l1.42,1.92,6.69,9a1.24,1.24,0,0,0,.18.21Z" fill="#4f545c"/><path d="M72.32,14.13v6.4h-4.4V.51h.25c3.09,0,6.16,0,9.25,0a8.8,8.8,0,0,1,3.93.89A5.77,5.77,0,0,1,84.56,6a7.5,7.5,0,0,1-.46,4,6.08,6.08,0,0,1-3.41,3.27l-.29.13s0,0,0,0l4.87,7.13h-5a.31.31,0,0,1-.31-.17c-1.34-2-2.7-4-4-6a.41.41,0,0,0-.41-.21H72.32Zm0-3.9h3.38a16,16,0,0,0,1.7-.05,3,3,0,0,0,2-.92,2.85,2.85,0,0,0,.65-2.49,2.4,2.4,0,0,0-1.46-1.91,4.63,4.63,0,0,0-1.9-.37H72.33Z" fill="#4f545c"/><path d="M46.7.51h6.87c.14,0,.24,0,.31.17q4.18,9.81,8.4,19.62c0,.07,0,.14.09.22H57.75c-.25-.58-.49-1.19-.74-1.79-.34-.83-.69-1.67-1-2.52a.23.23,0,0,0-.26-.17H47.66a.26.26,0,0,0-.28.19c-.55,1.37-1.11,2.73-1.66,4.1a.29.29,0,0,1-.31.21H41.13q.12-.3.24-.57Q45,11.54,48.58,3.14a.35.35,0,0,0-.06-.42c-.55-.64-1.08-1.3-1.62-2C46.85.7,46.78.62,46.7.51Zm5,5.16-2.64,6.45h5.29C53.45,10,52.58,7.84,51.69,5.67Z" fill="#4f545c"/><path d="M27.29,14.53v6h-4.4V.51h.24c2.75,0,5.5,0,8.25,0A8,8,0,0,1,36.12,2a6.21,6.21,0,0,1,2.53,4.29,7.49,7.49,0,0,1-.51,4.21,6.48,6.48,0,0,1-3.87,3.47,10,10,0,0,1-3.5.6H27.29Zm0-3.94h.24c1.1,0,2.2,0,3.3,0A5.28,5.28,0,0,0,32,10.44a2.88,2.88,0,0,0,2.29-2.68,2.94,2.94,0,0,0-.79-2.36,3.17,3.17,0,0,0-2.16-.88c-1.3,0-2.6,0-3.91,0l-.09,0Z" fill="#4f545c"/><path d="M.31,17.63l2.9-2.93a10.6,10.6,0,0,0,5.56,2.19c2.53.14,4.11-2,2.33-3.26S5.86,12.2,3.55,10.87A5,5,0,0,1,1.08,6.42C.94,1.44,5.83.14,8.35.2c4.88.13,7.23,2.52,7.23,2.52L12.65,5.57a8,8,0,0,0-4-1.48c-1,0-2.95,0-3.09,1.77-.2,2.25,4.11,2.28,6.5,3.33s4.25,3,4.09,5.38c-.13,2.19-1,6.21-7.46,6.21a14,14,0,0,1-5.39-1.23A11.48,11.48,0,0,1,.31,17.63Z" fill="#4f545c"/><path d="M102.28,39.63H95.51v-9.4h2.11v7.46h4.66v1.94Z" fill="#4f545c"/><path d="M82.32,30.18h1.81a.19.19,0,0,1,.2.15c.41,1,.82,1.92,1.22,2.89l1,2.26,1.11,2.62.57,1.32c0,.06,0,.12.08.22h-2a.28.28,0,0,1-.31-.21c-.23-.59-.47-1.18-.71-1.76,0-.06-.12-.15-.17-.15H81.33c-.29.71-.57,1.41-.87,2.12H78.31Zm-.24,5.46h2.38c-.4-1-.79-1.91-1.19-2.9Z" fill="#4f545c"/><path d="M23.92,39.62l4-9.45h1.83a.25.25,0,0,1,.17.12l1,2.26c.32.75.64,1.49,1,2.24L33,37.46l.84,1.95c0,.06,0,.13.08.21H32.2c-.51,0-.51,0-.69-.46s-.4-1-.62-1.54a.28.28,0,0,0-.2-.12H27l-.87,2.12Zm6.15-4-1.2-2.9c-.4,1-.79,1.94-1.19,2.9Z" fill="#4f545c"/><path d="M41,30.23c1.28,0,2.55,0,3.82,0a4.61,4.61,0,0,1,1.52.25,2.86,2.86,0,0,1,2,2.43A3.51,3.51,0,0,1,48.1,35a3,3,0,0,1-2,1.63,7.69,7.69,0,0,1-1.45.23c-.53,0-1.06,0-1.62,0v2.79H41Zm2.08,4.69h1.72A1.47,1.47,0,0,0,46,34.32a1.35,1.35,0,0,0-.44-2,2.93,2.93,0,0,0-1-.23c-.53,0-1,0-1.58,0v2.79Z" fill="#4f545c"/><path d="M70.33,39.62H68.24V32.18H65.41V30.24h7.75v1.92H70.34Z" fill="#4f545c"/><path d="M57.77,39.62H55.72V30.23h2.05Z" fill="#4f545c"/><path d="M16.57,36.61A4.06,4.06,0,0,1,14.2,37.7a2.9,2.9,0,0,1,0-5.8A3.84,3.84,0,0,1,16.48,33l1.31-1.51a5.09,5.09,0,0,0-3.65-1.55,4.92,4.92,0,0,0-5,4.87,5,5,0,0,0,5,4.87A4.9,4.9,0,0,0,17.89,38Z" fill="#4f545c"/></svg>