<svg width="150" height="20" viewBox="0 0 150 20" xmlns="http://www.w3.org/2000/svg"><title>logo</title><path d="M.8333.463l-.648 2.685h6.2962L4.1667 12.315 2.5 19.074h4.074l1.6667-6.7592 2.315-9.1667h6.2036l.648-2.5924H.8334V.463zm125 .185c-.3703 1.389-.648 2.4076-.926 3.3335h-1.574l.463-.2778c.8333-.5556 1.2963-.8333 1.2963-.8333-.463-1.0185-.8333-1.7593-1.2037-2.1297 0-.0926-.6483.3704-1.9446 1.1112l-.463.2776.1853.1852c.463.5556.8333 1.111 1.111 1.6667h-1.2962l-.3704 1.8518h2.8705l-.1852.3704-.1852.3704h-3.0554l-.3704 1.852h2.1296c-.926 1.111-1.9444 1.9444-3.2407 2.685l1.9445-9.4443h-5.463l-2.037 9.7222c-.0926.2777-.0926.463-.1852.7406-.463 1.852-1.2037 3.611-2.1296 5.0926.5556.5556 1.0185 1.0185 1.4815 1.6667 1.111-1.6668 2.037-3.7038 2.6852-6.2964h1.2037l-.648 3.2407c-.0927.463-.463.6482-1.2964.5556.1852.7406.2778 1.574.1852 2.4073 1.9445 0 2.963-.463 2.963-1.389l1.111-5.185.0927-.3704c.0926.0924.2778.2776.3704.3702.2776.2778.4628.6482.648.926.2778-.1852.648-.3704 1.0185-.7408l-.7407 2.3148h6.574l-.0925.6482c-.2778 1.2963-.6482 1.8518-1.1112 1.7592l.3705-1.7592h-7.037l-.3704 1.8518h5.741c.3702.7408.4628 1.389.3702 2.2222 1.852-.0925 2.963-.3703 3.3334-.8333.0925-.185.2777-.3703.463-.8332.2777-.926.648-2.2222 1.111-3.889l.2778-1.0184H127.5l.0926-.5556.1852-.926c.463.3705.8333.6482 1.111.926.278.1852.463.2778.6482.3704.0926-.0926.1852-.2778.2778-.3704.6482-.7407 1.2037-1.389 1.7593-1.9444-1.4814-.463-2.5-1.0185-3.2407-1.7593h3.2408l.3704-1.8517h-5.7407c.1852-.1852.2778-.463.3704-.7408h4.7223l.3704-1.8518H130c.7407-.7408 1.389-1.2963 2.037-1.7593L130 1.2037c-.648.8333-1.2963 1.574-2.1296 2.4074l1.2037.741h-1.7592l.2778-.8335.2778-.8333c.2777-.6482.463-1.2037.648-1.4815 0-.0926-.0925-.1852-.3703-.1852-.4628-.2778-1.296-.2778-2.3147-.3704zm12.037.1853c-.648.1852-1.574.5556-2.8703 1.111.3704 1.2038.7407 2.4076.926 3.5187.463-.1852 1.4814-.5556 3.0555-1.111-.6482-2.2224-1.0185-3.426-1.111-3.5187zm2.2223 1.0186l-.463 2.222h1.7593l-.8334 4.074h-2.2223l-.463 2.2224h2.315l-.463 2.037-1.389 6.4815h2.5l1.389-6.4816.463-2.037h1.759l-.3702 1.6666c0 .0926 0 .2778-.0925.3704-.463 2.4074-.1852 4.2593.7407 5.6482.5556.8333 1.2037 1.111 2.037 1.0185.8334 0 1.6667-1.2962 2.5-4.074-.7407-.3704-1.4814-.648-2.037-.926-.3703 1.2964-.648 1.6667-.7407 1.2038-.1852-.6482-.0926-1.574.0926-2.963.0927-.463.1853-.8333.278-1.389l1.9443-9.074h-8.7037zm-37.3148.185l-.8334 3.5186h-3.2407l-.648 2.5925h12.037l-7.315-6.111zm14.4444 1.6667h1.2037l-.5556 2.6852h-1.2037l.5555-2.6853zm26.7593.3704h1.8518L145 8.148h-1.852l.8335-4.074zm-121.852.7408c-2.5 0-4.6295.6482-6.4814 1.9445-1.8517 1.2963-3.0554 3.0555-3.5184 5.185 0 .0927-.0926.278-.0926.3705-.3703 1.9445-.0926 3.611 1.111 4.8148 1.204 1.2963 3.1483 1.9445 5.6483 1.9445 4.3518 0 7.6852-2.685 8.0556-2.963L25 15.648c-.463.0927-2.8704.8335-5.2778.5557-3.0555-.2778-3.7037-2.5-3.611-3.611h12.222l.0927-.3705.0925-.3703c.5556-2.2224.2778-3.9816-.8333-5.278-1.2037-1.2036-3.0556-1.7592-5.5556-1.7592zm36.2964 0c-2.5927 0-5 .6482-7.1297 2.037-2.1296 1.389-3.5185 3.1482-3.9815 5.0926 0 .0926-.0926.1852-.0926.2778-.3703 1.852.0926 3.426 1.4815 4.7222 1.4815 1.389 3.5185 2.037 6.111 2.037 1.5742 0 3.3334-.3703 5.0927-1.0184l1.0185-4.074c-1.2038.9258-2.1297 1.4814-2.963 1.8517-.8334.2778-1.6667.463-2.5926.463-1.4815 0-2.5926-.3704-3.3334-1.2037-.648-.7407-.926-1.6667-.7407-2.7778 0-.0926.0926-.2778.0926-.3703.2777-1.204 1.0184-2.315 2.222-3.1483C54.815 7.8704 56.111 7.5 57.5927 7.5c.926 0 1.7593.1852 2.3148.463.6482.2777 1.2963.926 1.9445 1.7592l1.111-3.9815c-1.389-.648-2.8704-.926-4.537-.926zm14.8147 0c-2.5 0-4.6296.6482-6.4814 1.9445-1.852 1.2963-3.0556 3.0555-3.5186 5.185 0 .0927-.0926.278-.0926.3705-.3702 1.9445-.0924 3.611 1.1113 4.8148 1.2037 1.2963 3.148 1.9445 5.648 1.9445 4.352 0 7.6853-2.685 8.0557-2.963l-1.852-.463c-.463.0927-2.8703.8335-5.2777.5557-3.0555-.2778-3.7037-2.5-3.611-3.611h12.222l.0927-.3705.0926-.3703c.5556-2.2224.2778-3.9816-.8333-5.278-1.2037-1.2036-3.0556-1.7592-5.5556-1.7592zm-31.8518.3704c-1.7594 0-3.426.5555-5.0927 1.574l-3.7037-1.2036-1.6667 6.7592-1.6667 6.7593h3.9814l1.574-6.4814c0-.0926.0927-.1852.0927-.2778.3704-1.574.926-2.6852 1.6667-3.3333.7408-.6482 1.7593-1.0185 3.0556-1.0185 1.2037 0 1.9445.2777 2.3148.7407.3704.463.3704 1.389 0 2.7778l-.2777.8333L40 19.074h3.9815l1.6666-6.7592.3705-1.574c.463-1.9445.3704-3.2408-.3704-4.074-.8332-1.0187-2.3147-1.4816-4.259-1.4816zm50.7406 0c-1.7592 0-3.426.5555-5.0926 1.574l-3.7037-1.2036-1.6666 6.7592L80 19.074h3.9815l1.574-6.4814c0-.0926 0-.1852.0926-.2778.3705-1.574.926-2.6852 1.6668-3.3333.7408-.6482 1.7593-1.0185 3.0556-1.0185 1.2037 0 1.9444.2777 2.3148.7407.3704.463.3704 1.389 0 2.7778l-.1852.8333-1.6667 6.7593h3.9815l1.6667-6.7592.3704-1.574c.4628-1.9445.3702-3.2408-.3705-4.074-.926-1.0187-2.3148-1.4816-4.352-1.4816zm40.463 1.389l-.463 2.222h2.2223l-.741 3.5186-.463 2.3148c-.0924.463-.4628 1.0185-1.2036 1.574-.185.1853-.2777.278-.3703.278.278.7406.6482 1.574 1.2964 2.222.0926 0 .2777-.185.7407-.648.6483-.7408 2.4075-2.315 5.1853-4.7223l-.463-.926-.3703-.9258-.463.3704c-.1852.185-.463.3702-.648.5554-.463.463-.8335.7407-1.1113.926l.1852-.926 1.2036-5.7407h-4.537V6.574zM21.4816 7.5925c2.1295 0 3.2406.8333 3.3332 2.5h-7.963c.1852-.3704.463-.7407.8334-1.0185.2778-.2777.648-.5555 1.111-.8333.3705-.185.8334-.3703 1.2964-.463.463-.0925.926-.185 1.389-.185zm51.111 0c2.1296 0 3.2407.8333 3.3333 2.5h-7.963c.185-.3704.463-.7407.8333-1.0185.2778-.2777.648-.5555 1.111-.8333.3705-.185.8334-.3703 1.2964-.463.463-.0925.926-.185 1.389-.185zm43.7037.648H117.5l-.5556 2.5h-1.2037l.5556-2.5zm8.611.3705h.7408c.0927.278.1853.5557.3705.8334h-1.6666l.2776-.3703.2778-.463zm-23.7962.0927l-.9258 3.611-1.6667 6.7594H102.5l1.6667-6.7592.926-3.611h-3.9816zM122.5 11.111h2.7778l-.1852 1.1112-.1852.6482h-1.9444c.0926-.2778.0926-.463.185-.6482.0927-.1852.0927-.463.1853-.5555-.0926-.0926-.1852-.0926-.1852-.0926h-1.2036l.5556-.463z" fill="#4F545C" fill-rule="evenodd"/></svg>