<svg xmlns="http://www.w3.org/2000/svg" width="26" height="21" viewBox="0 0 26 21">
  <g fill="none" fill-rule="evenodd">
    <rect width="26" height="21"/>
    <g transform="translate(1 1)">
      <path fill="#64D6F9" d="M7.54761217,19 C16.6049449,19 21.5580963,11.690452 21.5580963,5.35261554 C21.5580963,5.14514982 21.5541338,4.93864906 21.5442275,4.73311326 C22.5051389,4.05571356 23.3412309,3.21137633 24,2.24931437 C23.118339,2.63047232 22.1683246,2.88811579 21.1727412,3.00391061 C22.1891278,2.41046216 22.9697445,1.47059421 23.3372683,0.351244286 C22.3862633,0.900304723 21.3332233,1.29979685 20.2118298,1.51498222 C19.3123375,0.582833926 18.0324431,0 16.6168325,0 C13.8975523,0 11.6924093,2.14799391 11.6924093,4.79583545 C11.6924093,5.17216861 11.735997,5.53885221 11.81921,5.88913154 C7.72790688,5.68938547 4.0982375,3.78070086 1.67020267,0.878110716 C1.24720353,1.58638903 1.00350848,2.41046216 1.00350848,3.28953784 C1.00350848,4.95312341 1.87229125,6.42178771 3.19478268,7.28059929 C2.387419,7.25744033 1.62760556,7.04032504 0.963883271,6.6813611 L0.963883271,6.74311833 C0.963883271,9.06576943 2.66083295,11.0053327 4.91352623,11.445353 C4.5004334,11.5543931 4.06455607,11.6142204 3.61580055,11.6142204 C3.29780823,11.6142204 2.98972221,11.5823768 2.69055186,11.5273743 C3.31663021,13.4321991 5.13443679,14.819807 7.29004829,14.8584053 C5.60498617,16.1446927 3.48206546,16.9118334 1.17389689,16.9118334 C0.777644776,16.9118334 0.385355182,16.8896394 0,16.8462164 C2.17938663,18.2058405 4.76592232,19 7.54761217,19"/>
    </g>
    <rect width="26" height="21"/>
  </g>
</svg>
